<?xml version="1.0" standalone="no"?>
<!DOCTYPE svg PUBLIC "-//W3C//DTD SVG 20010904//EN"
 "http://www.w3.org/TR/2001/REC-SVG-20010904/DTD/svg10.dtd">
<svg version="1.0" xmlns="http://www.w3.org/2000/svg"
 width="16.000000pt" height="16.000000pt" viewBox="0 0 16.000000 16.000000"
 preserveAspectRatio="xMidYMid meet">
<metadata>
Created by potrace 1.11, written by Peter Selinger 2001-2013
</metadata>
<g transform="translate(0.000000,16.000000) scale(0.003200,-0.003200)"
fill="#000000" stroke="none">
<path d="M2443 4793 c-7 -18 -117 -198 -221 -361 -23 -37 -47 -78 -53 -92 -6
-13 -14 -27 -18 -30 -5 -3 -40 -57 -78 -120 -39 -63 -94 -154 -124 -202 -30
-48 -78 -127 -108 -175 -30 -48 -71 -113 -90 -143 -20 -30 -34 -58 -33 -62 1
-5 -3 -8 -8 -8 -6 0 -10 -6 -10 -14 0 -8 -3 -16 -7 -18 -5 -1 -15 -15 -23 -29
-12 -21 -185 -300 -250 -403 -15 -24 -61 -101 -97 -161 -10 -16 -21 -32 -24
-35 -4 -3 -9 -15 -13 -27 -4 -13 -12 -23 -17 -23 -5 0 -9 -5 -9 -10 0 -6 -5
-16 -10 -23 -6 -7 -70 -109 -142 -227 -73 -118 -136 -216 -140 -218 -4 -2 -8
-7 -8 -12 0 -5 -38 -70 -85 -144 -47 -75 -85 -140 -85 -145 0 -5 -3 -11 -8
-13 -4 -1 -28 -36 -52 -76 -25 -40 -52 -84 -60 -96 -8 -13 -32 -52 -53 -87
-54 -90 -61 -102 -73 -115 -6 -7 -17 -26 -24 -43 -7 -17 -16 -31 -21 -31 -5 0
-9 -5 -9 -12 0 -6 -6 -19 -14 -27 -8 -9 -16 -23 -18 -31 -2 -8 -7 -19 -13 -23
-9 -7 66 -3 155 7 19 3 62 7 94 10 33 4 71 8 85 10 14 3 58 8 96 11 39 4 81 8
95 10 14 1 54 6 90 9 36 4 81 9 100 12 19 2 58 6 86 9 28 2 71 7 95 10 24 3
64 7 89 10 25 2 65 6 90 10 25 3 65 7 90 9 25 2 65 7 90 10 25 4 68 9 95 11
28 3 68 7 90 10 22 3 65 7 95 9 30 3 75 7 100 10 25 3 68 9 95 11 28 3 66 8
85 10 76 10 156 17 172 17 10 -1 20 4 24 10 8 12 8 3027 0 3035 -3 3 -9 -3
-13 -14z"/>
<path d="M2614 3050 c0 -704 2 -1281 5 -1281 15 -4 51 -8 106 -13 33 -3 74 -8
90 -10 17 -3 59 -8 95 -12 36 -3 76 -8 90 -9 84 -10 160 -18 190 -20 19 -2 35
-4 35 -5 0 -1 23 -4 50 -6 73 -6 120 -11 120 -13 0 -1 29 -4 65 -6 36 -3 79
-7 95 -9 17 -3 57 -7 90 -11 33 -3 80 -8 105 -11 68 -9 89 -11 170 -18 41 -4
86 -9 100 -11 14 -2 54 -7 90 -10 36 -4 72 -8 80 -10 8 -2 49 -7 90 -10 41 -4
89 -9 105 -11 17 -3 55 -7 85 -9 30 -2 79 -7 108 -11 56 -7 65 1 32 31 -11 10
-20 24 -20 31 0 7 -4 14 -8 16 -4 2 -23 25 -42 53 -19 27 -40 56 -47 65 -56
73 -83 112 -83 119 0 5 -3 11 -8 13 -4 2 -50 62 -102 133 -52 72 -99 133 -105
137 -5 4 -6 8 -2 8 5 0 2 6 -6 14 -15 15 -155 205 -172 234 -5 9 -12 19 -16
22 -3 3 -34 46 -70 95 -76 107 -125 173 -145 198 -8 9 -14 19 -14 21 0 2 -36
53 -79 113 -127 173 -221 302 -279 382 -9 14 -32 44 -49 68 -18 24 -33 45 -33
48 0 3 -7 13 -16 23 -9 9 -79 105 -157 212 -77 107 -147 201 -154 208 -7 7
-13 20 -13 28 0 8 -3 14 -7 14 -5 0 -19 17 -33 37 -14 21 -30 45 -37 53 -43
53 -176 238 -181 250 -3 8 -13 22 -21 30 -9 8 -32 39 -51 67 -19 29 -37 53
-41 53 -3 0 -5 -576 -5 -1280z"/>
<path d="M2529 1636 c-2 -2 -33 -6 -69 -10 -76 -7 -137 -14 -200 -22 -55 -7
-83 -10 -180 -18 -41 -4 -87 -9 -101 -12 -15 -3 -53 -7 -85 -10 -33 -2 -77 -6
-99 -9 -22 -3 -58 -7 -80 -9 -22 -2 -65 -7 -95 -11 -30 -3 -73 -8 -95 -10
-163 -15 -230 -23 -230 -25 0 -2 -102 -10 -157 -13 -21 -1 -38 -4 -38 -7 0 -3
-17 -5 -38 -6 -39 -1 -157 -12 -207 -19 -32 -5 -97 -12 -185 -20 -30 -3 -68
-7 -85 -10 -47 -7 -156 -18 -192 -19 -38 -1 -37 -10 6 -85 14 -25 33 -59 41
-76 8 -16 19 -33 25 -37 5 -4 7 -8 3 -8 -4 0 12 -35 36 -77 23 -43 53 -100 66
-128 14 -27 27 -52 30 -55 3 -3 20 -34 39 -70 18 -36 40 -77 48 -93 14 -26 13
-32 -18 -90 -93 -179 -145 -278 -264 -502 -33 -60 -42 -87 -33 -90 13 -4 78
-11 183 -20 28 -2 68 -7 90 -10 22 -3 65 -8 95 -10 30 -3 71 -8 90 -10 19 -2
60 -6 90 -9 63 -7 110 -12 195 -23 80 -11 2709 -10 2805 0 41 5 82 10 90 12 8
2 49 7 90 10 41 3 89 8 105 11 17 3 46 7 65 9 19 1 67 6 105 11 39 4 85 8 102
8 18 1 33 3 33 6 0 3 25 6 55 7 30 1 62 6 70 10 13 8 13 12 -5 31 -11 11 -20
24 -20 28 0 3 -13 23 -30 44 -16 21 -30 42 -30 48 0 6 -3 12 -8 14 -7 3 -42
52 -126 178 -16 25 -32 47 -35 50 -4 3 -28 39 -56 80 -27 41 -52 77 -55 80 -3
3 -18 24 -34 48 -35 51 -36 49 61 188 38 54 100 144 138 199 38 55 73 103 79
107 6 4 8 8 4 8 -5 0 7 20 25 44 17 23 39 53 47 65 8 13 25 37 37 54 13 17 22
32 20 33 -1 2 -16 5 -32 8 -29 5 -44 7 -190 21 -38 4 -78 9 -87 10 -9 2 -48 7
-85 10 -37 4 -79 8 -93 10 -14 2 -52 6 -85 10 -33 3 -80 9 -105 11 -99 11
-157 16 -197 17 -24 1 -43 5 -43 8 0 3 -24 7 -52 8 -47 2 -93 7 -93 11 0 0
-25 3 -55 6 -73 6 -135 12 -135 14 0 1 -22 3 -50 5 -27 2 -70 6 -95 9 -25 3
-70 8 -100 11 -30 3 -68 8 -85 10 -16 2 -57 7 -90 10 -33 3 -74 8 -91 10 -17
2 -57 7 -90 10 -32 4 -75 8 -94 11 -19 2 -62 7 -95 10 -33 3 -63 8 -66 10 -3
2 -8 2 -10 0z"/>
</g>
</svg>
